<svg width="30" height="29" viewBox="0 0 30 29" fill="none" xmlns="http://www.w3.org/2000/svg">
<path d="M15 2.61113C19.0078 2.61113 19.4824 2.62812 21.0586 2.69609C22.5234 2.7584 23.3145 2.99629 23.8418 3.19453C24.5391 3.45508 25.043 3.77227 25.5645 4.27637C26.0918 4.78613 26.4141 5.26758 26.6836 5.9416C26.8887 6.45137 27.1348 7.22168 27.1992 8.63203C27.2695 10.1613 27.2871 10.6201 27.2871 14.4887C27.2871 18.3629 27.2695 18.8217 27.1992 20.3453C27.1348 21.7613 26.8887 22.526 26.6836 23.0357C26.4141 23.7098 26.0859 24.1969 25.5645 24.701C25.0371 25.2107 24.5391 25.5223 23.8418 25.7828C23.3145 25.9811 22.5176 26.2189 21.0586 26.2812C19.4766 26.3492 19.002 26.3662 15 26.3662C10.9922 26.3662 10.5176 26.3492 8.94141 26.2812C7.47656 26.2189 6.68555 25.9811 6.1582 25.7828C5.46094 25.5223 4.95703 25.2051 4.43555 24.701C3.9082 24.1912 3.58594 23.7098 3.31641 23.0357C3.11133 22.526 2.86523 21.7557 2.80078 20.3453C2.73047 18.816 2.71289 18.3572 2.71289 14.4887C2.71289 10.6145 2.73047 10.1557 2.80078 8.63203C2.86523 7.21602 3.11133 6.45137 3.31641 5.9416C3.58594 5.26758 3.91406 4.78047 4.43555 4.27637C4.96289 3.7666 5.46094 3.45508 6.1582 3.19453C6.68555 2.99629 7.48242 2.7584 8.94141 2.69609C10.5176 2.62812 10.9922 2.61113 15 2.61113ZM15 0C10.9277 0 10.418 0.0169922 8.81836 0.0849609C7.22461 0.15293 6.12891 0.402148 5.17969 0.758984C4.18945 1.13281 3.35156 1.62559 2.51953 2.43555C1.68164 3.23984 1.17188 4.04981 0.785156 5.00137C0.416016 5.92461 0.158203 6.97812 0.0878906 8.51875C0.0175781 10.0707 0 10.5635 0 14.5C0 18.4365 0.0175781 18.9293 0.0878906 20.4756C0.158203 22.0162 0.416016 23.0754 0.785156 23.993C1.17188 24.9502 1.68164 25.7602 2.51953 26.5645C3.35156 27.3688 4.18945 27.8672 5.17383 28.2354C6.12891 28.5922 7.21875 28.8414 8.8125 28.9094C10.4121 28.9773 10.9219 28.9943 14.9941 28.9943C19.0664 28.9943 19.5762 28.9773 21.1758 28.9094C22.7695 28.8414 23.8652 28.5922 24.8145 28.2354C25.7988 27.8672 26.6367 27.3688 27.4688 26.5645C28.3008 25.7602 28.8164 24.9502 29.1973 23.9986C29.5664 23.0754 29.8242 22.0219 29.8945 20.4813C29.9648 18.935 29.9824 18.4422 29.9824 14.5057C29.9824 10.5691 29.9648 10.0764 29.8945 8.53008C29.8242 6.98945 29.5664 5.93027 29.1973 5.0127C28.8281 4.0498 28.3184 3.23984 27.4805 2.43555C26.6484 1.63125 25.8105 1.13281 24.8262 0.764648C23.8711 0.407812 22.7813 0.158594 21.1875 0.090625C19.582 0.0169922 19.0723 0 15 0Z" fill="#FF86F3"/>
<path d="M15 7.05176C10.7461 7.05176 7.29492 10.3879 7.29492 14.5C7.29492 18.6121 10.7461 21.9482 15 21.9482C19.2539 21.9482 22.7051 18.6121 22.7051 14.5C22.7051 10.3879 19.2539 7.05176 15 7.05176ZM15 19.3314C12.2402 19.3314 10.002 17.1678 10.002 14.5C10.002 11.8322 12.2402 9.66855 15 9.66855C17.7598 9.66855 19.998 11.8322 19.998 14.5C19.998 17.1678 17.7598 19.3314 15 19.3314Z" fill="#FF86F3"/>
<path d="M24.8086 6.75742C24.8086 7.72032 24 8.49629 23.0098 8.49629C22.0137 8.49629 21.2109 7.71465 21.2109 6.75742C21.2109 5.79453 22.0195 5.01855 23.0098 5.01855C24 5.01855 24.8086 5.8002 24.8086 6.75742Z" fill="#FF86F3"/>
</svg>
