<svg width="48" height="48" viewBox="0 0 48 48" fill="none" xmlns="http://www.w3.org/2000/svg">
<g clip-path="url(#clip0_847_711)">
<path d="M27.5176 19.0315C27.5176 19.8067 28.1486 20.4377 28.9238 20.4377H33.1042C33.0283 19.4481 32.7988 18.5024 32.4316 17.6252H28.9238C28.1486 17.6252 27.5176 18.2563 27.5176 19.0315Z" fill="#232536"/>
<path d="M18.377 36.0002H26.8145C27.2031 36.0002 27.5176 35.6858 27.5176 35.2971V31.6877H28.9238V27.1174L21.893 21.844H15.5645C15.1758 21.844 14.8613 22.1585 14.8613 22.5471C14.8613 25.0376 15.8824 27.423 17.6738 29.143V35.2971C17.6738 35.6858 17.9883 36.0002 18.377 36.0002Z" fill="#FFD050"/>
<path d="M24.002 12.0002C23.6133 12.0002 23.2988 12.3147 23.2988 12.7034V13.4065H20.3568C20.0656 12.5898 19.2924 12.0002 18.377 12.0002C17.2138 12.0002 16.2676 12.9465 16.2676 14.1096C16.2676 15.2728 17.2138 16.219 18.377 16.219C19.2924 16.219 20.0656 15.6294 20.3568 14.8127H23.2988V17.6252H16.1381C15.8468 16.8086 15.0737 16.219 14.1582 16.219C12.995 16.219 12.002 17.1652 12.002 18.3284C12.002 19.4915 12.995 20.4377 14.1582 20.4377C15.0737 20.4377 15.8468 19.8482 16.1381 19.0315H23.2988V21.1412L30.0485 26.2035C30.2257 26.336 30.3301 26.5448 30.3301 26.7659V31.6877H31.0332C32.1964 31.6877 33.1426 30.7415 33.1426 29.5784V26.0627H35.2988C35.5584 26.0627 35.7966 25.9199 35.9189 25.6913C36.0411 25.4626 36.0274 25.1852 35.8839 24.9696L33.7533 21.844H28.9238C27.3727 21.844 26.1113 20.5826 26.1113 19.0315C26.1113 17.4804 27.3727 16.219 28.9238 16.219H31.6897C30.0628 13.6867 27.2291 12.0002 24.002 12.0002V12.0002Z" fill="#232536"/>
</g>
<defs>
<clipPath id="clip0_847_711">
<rect width="24" height="24" fill="white" transform="translate(12 12.0002)"/>
</clipPath>
</defs>
</svg>
