<svg width="31" height="26" viewBox="0 0 31 26" fill="none" xmlns="http://www.w3.org/2000/svg">
<path d="M9.75229 26.001C21.4475 26.001 27.8461 15.9966 27.8461 7.32346C27.8461 7.04221 27.8401 6.75471 27.8279 6.47346C29.0727 5.54426 30.1468 4.39332 31 3.07471C29.8408 3.60711 28.61 3.95482 27.3496 4.10596C28.6767 3.28485 29.6703 1.99494 30.1463 0.475332C28.8979 1.23905 27.5326 1.77779 26.109 2.06846C25.1498 1.01639 23.8816 0.319798 22.5004 0.0863779C21.1192 -0.147043 19.702 0.0957104 18.4679 0.777105C17.2338 1.4585 16.2515 2.54058 15.6729 3.85606C15.0943 5.17153 14.9516 6.64713 15.2669 8.05471C12.7391 7.92376 10.2661 7.24592 8.00831 6.06511C5.75053 4.8843 3.75835 3.22689 2.16092 1.20033C1.34902 2.6453 1.10057 4.35517 1.46608 5.98243C1.83159 7.60969 2.78362 9.03224 4.12869 9.96096C3.11889 9.92786 2.13122 9.64722 1.24727 9.14221V9.22346C1.24636 10.7398 1.75421 12.2098 2.68448 13.3833C3.61476 14.5569 4.91004 15.3617 6.35016 15.661C5.41474 15.9251 4.43298 15.9636 3.48084 15.7735C3.88721 17.0776 4.67787 18.2182 5.74245 19.0361C6.80704 19.854 8.09245 20.3084 9.41928 20.336C7.16671 22.1625 4.38414 23.1531 1.51973 23.1485C1.01175 23.1477 0.504265 23.1155 0 23.0522C2.90994 24.9793 6.29498 26.0028 9.75229 26.001Z" fill="#7DB9F1"/>
</svg>
